# xmcd
#
# Track frame offsets:
#	150
#	12545
#	28947
#	44662
#	61862
#	77212
#	94915
#	119025
#	134420
#	148420
#	161847
#	176865
#	191882
#	205855
#	218932
#
# Disc length: 3198 seconds
#
# Revision: 0
# Processed by: cddbd v1.5.2PL0 Copyright (c) Steve Scherf et al.
# Submitted via: dBpowerAMP V4.0
#
DISCID=f70c7c0f
DTITLE=Nelson y Sus Estrellas - 30 grandes Exitos
DYEAR=1900
DGENRE=
TTITLE0=La Sirena
TTITLE1=Gitana
TTITLE2=Payaso
TTITLE3=La Tribu de San Fernando
TTITLE4=Kikiriwi
TTITLE5=Tema del Papelón
TTITLE6=Llorándote
TTITLE7=Besitos del Corazón
TTITLE8=Canción India
TTITLE9=El Forastero
TTITLE10=Bailaderos
TTITLE11=Canción del Viajero
TTITLE12=El Porro
TTITLE13=Para ti Caleña
TTITLE14=Pascua de Navidad
EXTD=
EXTT0=
EXTT1=
EXTT2=
EXTT3=
EXTT4=
EXTT5=
EXTT6=
EXTT7=
EXTT8=
EXTT9=
EXTT10=
EXTT11=
EXTT12=
EXTT13=
EXTT14=
PLAYORDER=
